<svg width="64" height="30" viewBox="0 0 64 30" fill="none" xmlns="http://www.w3.org/2000/svg">
<path d="M14.9721 0C19.1681 0 22.7411 1.465 25.6871 4.393C27.0747 5.7703 28.1678 7.41526 28.9001 9.228C29.6331 11.04 30.0001 12.964 30.0001 15C30.0001 17.054 29.6371 18.978 28.9151 20.772C28.1937 22.5635 27.1034 24.1833 25.7151 25.526C24.2872 26.9484 22.5943 28.077 20.7321 28.848C18.9077 29.6095 16.9501 30.001 14.9731 30C12.9911 30 11.0931 29.62 9.28113 28.86C7.45579 28.0929 5.79931 26.9739 4.40613 25.567C2.96913 24.13 1.87513 22.509 1.12513 20.705C0.37426 18.8971 -0.00821093 16.9576 0.000133656 15C0.000133656 13.018 0.380134 11.112 1.13813 9.281C1.90454 7.43982 3.02895 5.76918 4.44613 4.366C7.30313 1.456 10.8121 0 14.9721 0ZM15.0271 2.706C11.5981 2.706 8.71413 3.902 6.37513 6.295C5.22104 7.45402 4.29797 8.822 3.65513 10.326C3.02386 11.8035 2.7006 13.3943 2.70513 15.001C2.70513 16.608 3.02113 18.157 3.65513 19.647C4.29198 21.1428 5.2161 22.499 6.37513 23.639C7.51707 24.7844 8.87268 25.6946 10.3651 26.318C11.8481 26.934 13.4021 27.242 15.0271 27.242C16.6341 27.242 18.1911 26.93 19.7021 26.305C21.2231 25.6713 22.6092 24.7532 23.7861 23.6C26.1251 21.314 27.2941 18.448 27.2941 15C27.2941 13.34 26.9901 11.769 26.3841 10.287C25.7748 8.80119 24.8733 7.45287 23.7331 6.322C21.3211 3.912 18.4191 2.706 15.0271 2.706ZM14.8391 12.509L12.8291 13.554C12.6141 13.109 12.3521 12.796 12.0391 12.617C11.7271 12.439 11.4371 12.349 11.1691 12.349C9.82913 12.349 9.15913 13.233 9.15913 15.001C9.15913 15.804 9.32913 16.447 9.66813 16.929C10.0081 17.411 10.5081 17.653 11.1681 17.653C12.0441 17.653 12.6601 17.223 13.0181 16.367L14.8651 17.304C14.4891 18.0189 13.9239 18.6166 13.2311 19.032C12.5351 19.452 11.7671 19.662 10.9281 19.662C9.58813 19.662 8.50813 19.252 7.68613 18.429C6.86513 17.609 6.45413 16.465 6.45413 15.001C6.45413 13.573 6.87013 12.439 7.70013 11.6C8.53013 10.76 9.57913 10.34 10.8471 10.34C12.7051 10.34 14.0351 11.063 14.8391 12.51V12.509ZM23.4911 12.509L21.5081 13.554C21.2941 13.109 21.0301 12.796 20.7181 12.617C20.4051 12.439 20.1051 12.349 19.8211 12.349C18.4811 12.349 17.8111 13.233 17.8111 15.001C17.8111 15.804 17.9811 16.447 18.3211 16.929C18.6591 17.411 19.1591 17.653 19.8211 17.653C20.6951 17.653 21.3111 17.223 21.6681 16.367L23.5431 17.304C23.1519 18.0164 22.5792 18.6125 21.8831 19.032C21.1871 19.452 20.4281 19.662 19.6061 19.662C18.2491 19.662 17.1651 19.252 16.3531 18.429C15.5391 17.609 15.1331 16.465 15.1331 15.001C15.1331 13.573 15.5481 12.439 16.3791 11.6C17.2091 10.76 18.2581 10.34 19.5261 10.34C21.3831 10.34 22.7061 11.063 23.4911 12.51V12.509Z" fill="black"/>
<path d="M48.973 0C53.186 0 56.741 1.446 59.633 4.34C62.544 7.25 64 10.803 64 15C64 19.215 62.57 22.723 59.713 25.526C56.678 28.51 53.098 30 48.973 30C44.919 30 41.402 28.526 38.42 25.58C35.474 22.633 34 19.107 34 15C34 10.893 35.474 7.34 38.42 4.34C41.313 1.446 44.83 0 48.973 0ZM49.027 2.706C45.617 2.706 42.732 3.902 40.375 6.295C37.928 8.795 36.705 11.697 36.705 15.001C36.705 18.322 37.919 21.197 40.347 23.625C42.776 26.054 45.669 27.267 49.026 27.267C52.365 27.267 55.276 26.045 57.758 23.597C60.116 21.33 61.294 18.464 61.294 14.999C61.294 11.589 60.097 8.688 57.705 6.294C55.313 3.902 52.42 2.706 49.027 2.706ZM53.045 11.276V17.41H51.33V24.696H46.67V17.41H44.956V11.276C44.9536 11.1491 44.9772 11.023 45.0253 10.9055C45.0735 10.7881 45.1452 10.6817 45.236 10.593C45.3248 10.502 45.4313 10.4302 45.549 10.3818C45.6666 10.3335 45.7929 10.3098 45.92 10.312H52.081C52.331 10.312 52.555 10.405 52.751 10.592C52.8454 10.6789 52.9203 10.7848 52.971 10.9026C53.0216 11.0205 53.0469 11.1477 53.045 11.276ZM46.91 7.42C46.91 6.01 47.606 5.304 49 5.304C50.394 5.304 51.09 6.009 51.09 7.42C51.09 8.813 50.393 9.51 49 9.51C47.607 9.51 46.91 8.813 46.91 7.42Z" fill="black"/>
</svg>
